<?xml version="1.0" standalone="no"?>
<!DOCTYPE svg PUBLIC "-//W3C//DTD SVG 20010904//EN"
 "http://www.w3.org/TR/2001/REC-SVG-20010904/DTD/svg10.dtd">
<svg version="1.0" xmlns="http://www.w3.org/2000/svg"
 width="256.000000pt" height="256.000000pt" viewBox="0 0 256.000000 256.000000"
 preserveAspectRatio="xMidYMid meet">
<g transform="translate(0.000000,256.000000) scale(0.100000,-0.100000)"
fill="#000000" stroke="none">
<path d="M1025 2522 c-25 -39 -67 -182 -56 -193 3 -4 58 -11 121 -17 101 -10
128 -17 225 -57 97 -41 159 -73 190 -97 6 -5 31 -25 58 -45 26 -20 46 -38 43
-40 -2 -2 -42 7 -88 21 -128 39 -247 37 -430 -9 -77 -20 -168 -50 -202 -67
-81 -41 -220 -141 -251 -182 -23 -30 -32 -56 -20 -56 10 0 222 -31 243 -36 18
-3 38 10 93 63 95 92 99 94 99 42 0 -75 17 -111 76 -156 116 -88 259 -62 332
61 23 39 33 115 19 153 -8 21 -7 21 43 8 61 -16 160 -87 160 -115 0 -24 -91
-96 -156 -122 -27 -11 -64 -27 -82 -35 -52 -23 -168 -53 -203 -53 -18 0 -49 5
-70 11 -37 11 -39 11 -66 -22 -15 -18 -26 -38 -24 -44 58 -171 57 -156 71
-952 9 -516 10 -533 30 -553 26 -26 34 -25 48 5 28 61 163 173 247 205 l25 10
-42 67 c-58 95 -104 191 -123 260 -26 91 -32 386 -11 521 9 59 20 134 24 167
l7 60 80 48 c44 26 107 62 140 79 63 33 218 144 273 198 93 90 109 173 57 285
-60 128 -109 188 -256 317 -120 104 -268 197 -413 260 -141 61 -176 63 -211
10z m156 -12 c106 -39 241 -109 319 -165 225 -159 386 -355 408 -496 8 -53 7
-58 -27 -111 -65 -100 -211 -210 -463 -347 -43 -24 -80 -47 -83 -51 -3 -5 -12
-64 -21 -132 -8 -68 -17 -134 -19 -148 -15 -78 -16 -254 -2 -360 19 -142 54
-248 118 -356 27 -45 49 -85 49 -87 0 -5 -37 -19 -54 -21 -13 -2 -72 -53 -144
-123 -35 -35 -67 -63 -73 -63 -5 0 -9 40 -9 92 0 86 -5 377 -13 693 -1 71 0
150 3 176 4 27 4 46 0 44 -3 -2 -6 40 -6 93 0 137 -12 243 -34 315 -11 34 -20
69 -20 78 0 28 25 41 62 32 52 -13 189 8 263 41 174 77 282 151 277 190 -1 12
-19 36 -40 54 -42 37 -149 92 -178 92 -11 0 -25 5 -32 12 -7 7 -12 8 -12 4 0
-5 -7 -3 -15 4 -13 11 -14 10 -9 -6 4 -10 11 -24 15 -29 4 -6 11 -33 14 -61 6
-42 3 -58 -18 -100 -30 -59 -50 -77 -102 -95 -55 -18 -73 -19 -123 -6 -97 25
-151 107 -139 210 4 28 2 47 -4 47 -18 0 -81 -48 -143 -108 l-61 -59 -60 12
c-33 7 -84 16 -113 20 -33 4 -52 11 -49 19 4 13 75 68 167 130 78 52 163 87
297 121 89 23 116 26 234 22 135 -3 221 -19 293 -53 53 -26 55 -10 5 41 -137
142 -392 257 -594 269 -27 2 -50 7 -50 12 3 76 64 201 93 189 9 -4 51 -20 93
-35z"/>
<path d="M1147 2473 c-4 -3 -7 -11 -7 -17 0 -6 5 -5 12 2 6 6 9 14 7 17 -3 3
-9 2 -12 -2z"/>
<path d="M1197 2466 c-4 -10 -1 -13 8 -9 8 3 12 9 9 14 -7 12 -11 11 -17 -5z"/>
<path d="M1140 2421 c0 -6 4 -13 10 -16 6 -3 7 1 4 9 -7 18 -14 21 -14 7z"/>
<path d="M1255 2389 c-4 -6 -5 -12 -2 -15 2 -3 7 2 10 11 7 17 1 20 -8 4z"/>
<path d="M1272 2369 c-8 -12 -9 -18 -4 -15 6 3 12 1 14 -5 2 -7 9 -5 17 5 12
14 12 16 -3 10 -12 -5 -15 -2 -10 10 9 22 1 20 -14 -5z"/>
<path d="M1378 2353 c7 -3 16 -2 19 1 4 3 -2 6 -13 5 -11 0 -14 -3 -6 -6z"/>
<path d="M1545 2260 c-3 -5 -1 -10 4 -10 6 0 11 5 11 10 0 6 -2 10 -4 10 -3 0
-8 -4 -11 -10z"/>
<path d="M1525 2220 c-3 -5 -1 -10 4 -10 6 0 11 5 11 10 0 6 -2 10 -4 10 -3 0
-8 -4 -11 -10z"/>
<path d="M1055 2020 c-3 -6 1 -7 9 -4 18 7 21 14 7 14 -6 0 -13 -4 -16 -10z"/>
<path d="M1095 1995 c0 -13 3 -21 8 -18 4 2 7 10 7 18 0 8 -3 16 -7 18 -5 3
-8 -5 -8 -18z"/>
<path d="M1126 2002 c-3 -5 1 -9 9 -9 8 0 12 4 9 9 -3 4 -7 8 -9 8 -2 0 -6 -4
-9 -8z"/>
<path d="M1030 1986 c0 -2 7 -6 15 -10 8 -3 15 -1 15 4 0 6 -7 10 -15 10 -8 0
-15 -2 -15 -4z"/>
<path d="M1150 1980 c-18 -12 -2 -12 25 0 13 6 15 9 5 9 -8 0 -22 -4 -30 -9z"/>
<path d="M1396 1973 c-6 -14 -5 -15 5 -6 7 7 10 15 7 18 -3 3 -9 -2 -12 -12z"/>
<path d="M1235 1969 c-4 -6 -5 -12 -2 -15 2 -3 7 2 10 11 7 17 1 20 -8 4z"/>
<path d="M928 1903 c7 -3 16 -2 19 1 4 3 -2 6 -13 5 -11 0 -14 -3 -6 -6z"/>
<path d="M1139 1893 c-13 -16 -12 -17 4 -4 9 7 17 15 17 17 0 8 -8 3 -21 -13z"/>
<path d="M1328 1903 c7 -3 16 -2 19 1 4 3 -2 6 -13 5 -11 0 -14 -3 -6 -6z"/>
<path d="M1378 1903 c7 -3 16 -2 19 1 4 3 -2 6 -13 5 -11 0 -14 -3 -6 -6z"/>
<path d="M1246 1848 c3 -4 9 -8 15 -8 5 0 9 4 9 8 0 5 -7 9 -15 9 -8 0 -12 -4
-9 -9z"/>
<path d="M1397 1835 c3 -8 9 -12 14 -9 12 7 11 11 -5 17 -10 4 -13 1 -9 -8z"/>
<path d="M1356 1773 c-6 -14 -5 -15 5 -6 7 7 10 15 7 18 -3 3 -9 -2 -12 -12z"/>
<path d="M1730 1759 c0 -5 5 -7 10 -4 6 3 10 8 10 11 0 2 -4 4 -10 4 -5 0 -10
-5 -10 -11z"/>
<path d="M1818 1736 c-18 -13 -25 -32 -9 -22 5 4 11 3 14 -1 2 -5 3 -3 1 3 -1
6 3 17 9 23 15 15 6 13 -15 -3z"/>
<path d="M1215 1731 c-9 -15 15 -25 28 -12 9 9 7 10 -7 5 -13 -5 -17 -4 -12 4
4 7 5 12 2 12 -3 0 -7 -4 -11 -9z"/>
<path d="M1746 1713 c-6 -14 -5 -15 5 -6 7 7 10 15 7 18 -3 3 -9 -2 -12 -12z"/>
<path d="M1766 1703 c-6 -14 -5 -15 5 -6 7 7 10 15 7 18 -3 3 -9 -2 -12 -12z"/>
<path d="M1650 1674 c0 -14 3 -14 15 -4 8 7 15 14 15 16 0 2 -7 4 -15 4 -8 0
-15 -7 -15 -16z"/>
<path d="M1510 1570 c-9 -6 -10 -10 -3 -10 6 0 15 5 18 10 8 12 4 12 -15 0z"/>
<path d="M1646 1563 c-6 -14 -5 -15 5 -6 7 7 10 15 7 18 -3 3 -9 -2 -12 -12z"/>
<path d="M1585 1561 c-10 -17 12 -21 25 -6 10 12 10 15 -3 15 -9 0 -18 -4 -22
-9z"/>
<path d="M1450 1539 c0 -5 5 -7 10 -4 6 3 10 8 10 11 0 2 -4 4 -10 4 -5 0 -10
-5 -10 -11z"/>
<path d="M1236 1524 c-4 -9 -4 -19 -1 -22 2 -3 7 3 11 12 4 9 4 19 1 22 -2 3
-7 -3 -11 -12z"/>
<path d="M1366 1523 c-6 -14 -5 -15 5 -6 7 7 10 15 7 18 -3 3 -9 -2 -12 -12z"/>
<path d="M1335 1480 c3 -5 8 -10 11 -10 2 0 4 5 4 10 0 6 -5 10 -11 10 -5 0
-7 -4 -4 -10z"/>
<path d="M1226 1435 c-3 -8 -1 -15 4 -15 6 0 10 7 10 15 0 8 -2 15 -4 15 -2 0
-6 -7 -10 -15z"/>
<path d="M1275 1299 c-4 -6 -5 -12 -2 -15 2 -3 7 2 10 11 7 17 1 20 -8 4z"/>
<path d="M1320 390 c-9 -6 -10 -10 -3 -10 6 0 15 5 18 10 8 12 4 12 -15 0z"/>
<path d="M1316 355 c-9 -26 -7 -32 5 -12 6 10 9 21 6 23 -2 3 -7 -2 -11 -11z"/>
<path d="M1301 204 c0 -11 3 -14 6 -6 3 7 2 16 -1 19 -3 4 -6 -2 -5 -13z"/>
</g>
</svg>
